<?xml version="1.0" encoding="UTF-8" standalone="no"?>
<!DOCTYPE svg PUBLIC "-//W3C//DTD SVG 1.1//EN" "http://www.w3.org/Graphics/SVG/1.1/DTD/svg11.dtd">
<!-- Created with Vectornator (http://vectornator.io/) -->
<svg height="100%" stroke-miterlimit="10" style="fill-rule:nonzero;clip-rule:evenodd;stroke-linecap:round;stroke-linejoin:round;" version="1.1" viewBox="0 0 960 960" width="100%" xml:space="preserve" xmlns="http://www.w3.org/2000/svg" xmlns:vectornator="http://vectornator.io" xmlns:xlink="http://www.w3.org/1999/xlink">
<defs/>
<g id="Untitled" vectornator:layerName="Untitled">
<path d="M660 780L780 780L780 180L660 180L660 780ZM280.175 550C288.725 550 295.833 547.108 301.5 541.325C307.167 535.541 310 528.374 310 519.825C310 511.275 307.108 504.167 301.325 498.5C295.541 492.833 288.374 490 279.825 490C271.275 490 264.167 492.892 258.5 498.675C252.833 504.459 250 511.626 250 520.175C250 528.725 252.892 535.833 258.675 541.5C264.459 547.167 271.626 550 280.175 550ZM280.175 670C288.725 670 295.833 667.108 301.5 661.325C307.167 655.541 310 648.374 310 639.825C310 631.275 307.108 624.167 301.325 618.5C295.541 612.833 288.374 610 279.825 610C271.275 610 264.167 612.892 258.5 618.675C252.833 624.459 250 631.626 250 640.175C250 648.725 252.892 655.833 258.675 661.5C264.459 667.167 271.626 670 280.175 670ZM250 430L550 430L550 290L250 290L250 430ZM400.175 550C408.725 550 415.833 547.108 421.5 541.325C427.167 535.541 430 528.374 430 519.825C430 511.275 427.108 504.167 421.325 498.5C415.541 492.833 408.374 490 399.825 490C391.275 490 384.167 492.892 378.5 498.675C372.833 504.459 370 511.626 370 520.175C370 528.725 372.892 535.833 378.675 541.5C384.459 547.167 391.626 550 400.175 550ZM400.175 670C408.725 670 415.833 667.108 421.5 661.325C427.167 655.541 430 648.374 430 639.825C430 631.275 427.108 624.167 421.325 618.5C415.541 612.833 408.374 610 399.825 610C391.275 610 384.167 612.892 378.5 618.675C372.833 624.459 370 631.626 370 640.175C370 648.725 372.892 655.833 378.675 661.5C384.459 667.167 391.626 670 400.175 670ZM520.175 550C528.725 550 535.833 547.108 541.5 541.325C547.167 535.541 550 528.374 550 519.825C550 511.275 547.108 504.167 541.325 498.5C535.541 492.833 528.374 490 519.825 490C511.275 490 504.167 492.892 498.5 498.675C492.833 504.459 490 511.626 490 520.175C490 528.725 492.892 535.833 498.675 541.5C504.459 547.167 511.626 550 520.175 550ZM520.175 670C528.725 670 535.833 667.108 541.5 661.325C547.167 655.541 550 648.374 550 639.825C550 631.275 547.108 624.167 541.325 618.5C535.541 612.833 528.374 610 519.825 610C511.275 610 504.167 612.892 498.5 618.675C492.833 624.459 490 631.626 490 640.175C490 648.725 492.892 655.833 498.675 661.5C504.459 667.167 511.626 670 520.175 670ZM600 740L600 220L180 220L180 740L600 740ZM660 840C646.517 840 634.647 836.167 624.388 828.5C614.129 820.833 607 811.333 603 800L180 800C163.5 800 149.375 794.125 137.625 782.375C125.875 770.625 120 756.5 120 740L120 220C120 203.5 125.875 189.375 137.625 177.625C149.375 165.875 163.5 160 180 160L603 160C607 148.667 614.129 139.167 624.388 131.5C634.647 123.833 646.517 120 660 120L780 120C796.5 120 810.625 125.875 822.375 137.625C834.125 149.375 840 163.5 840 180L840 780C840 796.5 834.125 810.625 822.375 822.375C810.625 834.125 796.5 840 780 840L660 840ZM180 740L180 220L180 740Z" fill="#ffffff" fill-rule="nonzero" opacity="1" stroke="none" vectornator:layerName="path"/>
</g>
</svg>
